ply
format ascii 1.0
comment VCGLIB generated
element vertex 42
property float x
property float y
property float z
property float nx
property float ny
property float nz
element face 80
property list uchar int vertex_indices
end_header
0.62035 -1.25656 22.1063 9.53674e-006 0 1126.8 
0.62035 10.1602 17.8844 -0.0506624 85.7705 227.064 
-8.28704 7.97981 17.8844 -38.2673 68.8779 227.361 
-13.7921 2.27145 17.8844 -61.8934 26.0779 227.326 
-13.7921 -4.78458 17.8844 -61.7379 -26.4202 227.402 
-8.28704 -10.4929 17.8844 -37.7511 -69.3652 227.232 
0.62035 -12.6734 17.8844 0.103971 -85.7504 227.113 
9.52774 -10.4929 17.8844 38.2647 -68.7788 227.402 
15.0328 -4.78458 17.8844 61.8956 -26.0294 227.344 
15.0328 2.27145 17.8844 61.7351 26.4567 227.386 
9.52774 7.97981 17.8844 37.8845 69.4158 227.143 
-19.6087 15.2421 6.83126 -2.87394 3.48303 1.87187 
0.62035 17.2162 6.83126 0.251649 5.41806 1.66447 
-22.6994 4.4518 6.83126 -4.98861 0.925899 2.04794 
-22.6994 -6.96502 6.83126 -5.09073 -0.927911 1.96173 
-19.2947 -17.9082 6.83126 -2.49625 -3.76129 1.99621 
0.62035 -19.7293 6.83126 -0.0306937 -5.40204 1.75012 
22.1254 -17.8291 6.83126 2.90296 -3.21021 1.89834 
23.9401 -6.96492 6.83126 5.01804 -0.718203 2.0847 
23.9401 4.4518 6.83126 5.09706 0.920701 1.95407 
21.4306 12.9131 6.83126 2.78756 3.76811 1.94008 
-19.6087 15.2421 -6.83126 -2.51913 3.72233 -2.00128 
0.62035 17.2162 -6.83126 0.257202 5.38678 -1.70346 
-22.6994 4.4518 -6.83126 -5.10427 0.875994 -1.96518 
-22.6994 -6.96502 -6.83126 -4.98099 -0.964581 -2.04105 
-19.2947 -17.9082 -6.83126 -2.84805 -3.53379 -1.87205 
0.62035 -19.7293 -6.83126 0.00985648 -5.40068 -1.75235 
22.1254 -17.8291 -6.83126 2.5233 -3.51437 -2.04209 
23.9401 -6.96492 -6.83126 5.15648 -0.606229 -1.98356 
23.9401 4.4518 -6.83126 4.98205 0.988363 -2.02573 
21.4306 12.9131 -6.83126 3.1006 3.54234 -1.78277 
-8.28704 7.97981 -17.8844 -37.7579 69.3585 -227.232 
0.62035 10.1602 -17.8844 0.243405 85.7858 -227.025 
-13.7921 2.27145 -17.8844 -61.7391 26.4032 -227.409 
-13.7921 -4.78458 -17.8844 -61.8928 -26.0864 -227.322 
-8.28704 -10.4929 -17.8844 -38.2631 -68.894 -227.356 
0.62035 -12.6734 -17.8844 -0.115663 -85.7515 -227.111 
9.52774 -10.4929 -17.8844 37.7461 -69.306 -227.258 
15.0328 -4.78458 -17.8844 61.7435 -26.3061 -227.445 
15.0328 2.27145 -17.8844 61.8914 26.1047 -227.315 
9.52774 7.97981 -17.8844 38.3276 68.9466 -227.3 
0.62035 -1.25656 -22.1063 9.53674e-006 0 -1126.8 
3 0 1 2 
3 0 2 3 
3 0 3 4 
3 0 4 5 
3 0 5 6 
3 0 6 7 
3 0 7 8 
3 0 8 9 
3 0 9 10 
3 0 10 1 
3 11 2 1 
3 11 1 12 
3 13 3 2 
3 13 2 11 
3 14 4 3 
3 14 3 13 
3 15 5 4 
3 15 4 14 
3 16 6 5 
3 16 5 15 
3 17 7 6 
3 17 6 16 
3 18 8 7 
3 18 7 17 
3 19 9 8 
3 19 8 18 
3 20 10 9 
3 20 9 19 
3 12 1 10 
3 12 10 20 
3 21 11 12 
3 21 12 22 
3 23 13 11 
3 23 11 21 
3 24 14 13 
3 24 13 23 
3 25 15 14 
3 25 14 24 
3 26 16 15 
3 26 15 25 
3 27 17 16 
3 27 16 26 
3 28 18 17 
3 28 17 27 
3 29 19 18 
3 29 18 28 
3 30 20 19 
3 30 19 29 
3 22 12 20 
3 22 20 30 
3 31 21 22 
3 31 22 32 
3 33 23 21 
3 33 21 31 
3 34 24 23 
3 34 23 33 
3 35 25 24 
3 35 24 34 
3 36 26 25 
3 36 25 35 
3 37 27 26 
3 37 26 36 
3 38 28 27 
3 38 27 37 
3 39 29 28 
3 39 28 38 
3 40 30 29 
3 40 29 39 
3 32 22 30 
3 32 30 40 
3 41 31 32 
3 41 33 31 
3 41 34 33 
3 41 35 34 
3 41 36 35 
3 41 37 36 
3 41 38 37 
3 41 39 38 
3 41 40 39 
3 41 32 40 
