ply
format ascii 1.0
comment VCGLIB generated
element vertex 25
property float x
property float y
property float z
property float nx
property float ny
property float nz
element face 32
property list uchar int vertex_indices
end_header
-0.995318 -8.90496e-008 0.509304 0 3 5.24536e-007 
-0.995318 -1.76453e-007 1.00919 0 1 1.74846e-007 
-0.49776 -1.76453e-007 1.00919 0 3 5.24536e-007 
-0.49776 -8.90496e-008 0.509304 0 6 1.04907e-006 
-0.000204 -1.76453e-007 1.00919 0 3 5.24536e-007 
-0.000204 -8.90496e-008 0.509304 0 6 1.04907e-006 
0.497354 -1.76453e-007 1.00919 0 3 5.24536e-007 
0.497354 -8.90496e-008 0.509304 0 6 1.04907e-006 
0.994912 -1.76453e-007 1.00919 0 2 3.49692e-007 
0.994912 -8.90496e-008 0.509304 0 3 5.24536e-007 
-0.995318 -1.64634e-009 0.009416 0 3 5.24536e-007 
-0.49776 -1.64634e-009 0.009416 0 6 1.04907e-006 
-0.000204 -1.64634e-009 0.009416 0 6 1.04907e-006 
0.497354 -1.64634e-009 0.009416 0 6 1.04907e-006 
0.994912 -1.64634e-009 0.009416 0 3 5.24536e-007 
-0.995318 8.57568e-008 -0.490472 0 3 5.24536e-007 
-0.49776 8.57568e-008 -0.490472 0 6 1.04907e-006 
-0.000204 8.57568e-008 -0.490472 0 6 1.04907e-006 
0.497354 8.57568e-008 -0.490472 0 6 1.04907e-006 
0.994912 8.57568e-008 -0.490472 0 3 5.24536e-007 
-0.995318 1.7316e-007 -0.99036 0 2 3.49692e-007 
-0.49776 1.7316e-007 -0.99036 0 3 5.24536e-007 
-0.000204 1.7316e-007 -0.99036 0 3 5.24536e-007 
0.497354 1.7316e-007 -0.99036 0 3 5.24536e-007 
0.994912 1.7316e-007 -0.99036 0 1 1.74846e-007 
3 0 1 2 
3 0 2 3 
3 3 2 4 
3 3 4 5 
3 5 4 6 
3 5 6 7 
3 7 6 8 
3 7 8 9 
3 10 0 3 
3 10 3 11 
3 11 3 5 
3 11 5 12 
3 12 5 7 
3 12 7 13 
3 13 7 9 
3 13 9 14 
3 15 10 11 
3 15 11 16 
3 16 11 12 
3 16 12 17 
3 17 12 13 
3 17 13 18 
3 18 13 14 
3 18 14 19 
3 20 15 16 
3 20 16 21 
3 21 16 17 
3 21 17 22 
3 22 17 18 
3 22 18 23 
3 23 18 19 
3 23 19 24 
